<?xml version="1.0"?>
<svg id="icons" xmlns="http://www.w3.org/2000/svg" viewBox="0 0 130 130" fill="none" stroke="#6700E5" stroke-width="2.6" stroke-linejoin="round" stroke-linecap="round">
  <defs>
    
  </defs>
  <g>
    <path class="cls-2" d="M35.73,59.45s0-.02-.01-.02c-1.43-2.56-2.23-5.42-2.23-8.44,0-10.79,10.21-19.55,22.81-19.55,7.7,0,19.94,3.93,24.67,12.87l-2.32,2.74s.46,2.59.46,3.94c0,2-.35,3.93-1,5.75,0,0,0,0,0,.02-.03.1-.07.19-.11.28-.85,2.41-.31,5.1,1.42,7.01l3.2,3.53c.99,1.09.62,2.83-.73,3.43l-1.22.54c-1.42.63-2.46,1.87-2.82,3.37l-2.29,9.42c-.84,3.45-4.52,5.4-7.86,4.15l-5.74-2.15.94,6.56h-24.5s5-19.89-2.64-33.43c0,0,0,0,0-.02Z"></path>
    <polyline class="cls-2" points="62.87 92.89 71.55 92.89 70.95 88.74"></polyline>
    <path class="cls-2" d="M73.6,87.46l2.75,1.03c3.34,1.25,7.02-.7,7.86-4.15l2.29-9.42c.37-1.5,1.41-2.75,2.82-3.37l1.22-.54c1.35-.6,1.72-2.34.73-3.43l-3.2-3.53c-1.73-1.91-2.26-4.6-1.42-7.01.04-.1.07-.19.11-.28,0,0,0-.01,0-.02.65-1.82,1-3.75,1-5.75,0-10.79-10.21-19.55-22.81-19.55-1.48,0-2.93.13-4.34.36"></path>
    <line class="cls-2" x1="71.55" y1="92.89" x2="80.22" y2="92.89"></line>
    <path class="cls-2" d="M85.02,88.48c3.34,1.25,7.02-.7,7.86-4.15l2.29-9.42c.37-1.5,1.41-2.75,2.82-3.37l1.22-.54c1.35-.6,1.72-2.34.73-3.43l-3.2-3.53c-1.73-1.91-2.26-4.6-1.42-7.01.04-.1.07-.19.11-.28,0,0,0-.01,0-.02.65-1.82,1-3.75,1-5.75,0-8.1-5.74-15.04-13.93-18.01"></path>
    <line class="cls-2" x1="78.66" y1="47.13" x2="73.09" y2="53.11"></line>
    <line class="cls-2" x1="75.69" y1="47.13" x2="67.4" y2="54.66"></line>
    <path class="cls-2" d="M67.4,50.12l-3.19,2.99.2,2.73c.21,2.82-2.02,5.22-4.85,5.22h0l-2.28-3.49c-.98-1.51-2.87-2.17-4.58-1.59h0c-2.08.7-3.2,2.96-2.49,5.03l2.03,5.94c.55,1.6,2.05,2.68,3.75,2.68h1.81"></path>
    <line class="cls-2" x1="39.86" y1="74.68" x2="49.36" y2="74.68"></line>
  </g>
  <circle class="cls-1" cx="65" cy="65" r="49.12"></circle>
</svg>