<?xml version="1.0"?>
<svg id="icons" xmlns="http://www.w3.org/2000/svg" viewBox="0 0 130 130" fill="none" stroke="#6700E5" stroke-width="2.6" stroke-linejoin="round" stroke-linecap="round">
  <defs>
    
  </defs>
  <g>
    <polyline class="cls-2" points="33.23 49.74 33.23 94.04 82.52 94.04 82.52 94.04 82.52 30.47 52.5 30.47"></polyline>
    <line class="cls-2" x1="34.12" y1="46.83" x2="49.31" y2="31.61"></line>
    <polyline class="cls-2" points="82.52 36.83 90.44 36.83 90.44 87.68 82.52 87.68"></polyline>
    <polyline class="cls-2" points="90.44 41.91 96.77 41.91 96.77 82.6 90.44 82.6"></polyline>
    <path class="cls-2" d="M55.12,30.47h-3.06c-2.14,0-3.88,1.74-3.88,3.88v11.07h-11.07c-2.14,0-3.88,1.74-3.88,3.88v2.8"></path>
    <rect class="cls-2" x="41.57" y="53.64" width="32.61" height="32.16"></rect>
    <line class="cls-2" x1="41.57" y1="61.69" x2="74.18" y2="61.69"></line>
    <line class="cls-2" x1="41.57" y1="69.73" x2="74.18" y2="69.73"></line>
    <line class="cls-2" x1="41.57" y1="77.77" x2="74.18" y2="77.77"></line>
    <line class="cls-2" x1="63.45" y1="53.64" x2="63.45" y2="85.81"></line>
  </g>
  <circle class="cls-1" cx="65" cy="65" r="49.12"></circle>
</svg>