<?xml version="1.0"?>
<svg id="icons" xmlns="http://www.w3.org/2000/svg" viewBox="0 0 130 130" fill="none" stroke="#6700E5" stroke-width="2.6" stroke-linejoin="round" stroke-linecap="round">
  <defs>
    
  </defs>
  <g>
    <circle class="cls-2" cx="65" cy="41.56" r="8.66"></circle>
    <rect class="cls-2" x="79.78" y="44.45" width="17.31" height="5.77"></rect>
    <rect class="cls-2" x="79.78" y="38.67" width="17.31" height="5.77"></rect>
    <rect class="cls-2" x="79.78" y="32.9" width="17.31" height="5.77"></rect>
    <rect class="cls-2" x="35.44" y="35.44" width="12.24" height="12.24" transform="translate(-17.21 41.56) rotate(-45)"></rect>
    <rect class="cls-2" x="79.78" y="56.34" width="17.31" height="17.31" rx="3.96" ry="3.96"></rect>
    <rect class="cls-2" x="32.9" y="56.34" width="17.31" height="17.31"></rect>
    <rect class="cls-2" x="79.78" y="79.78" width="17.31" height="17.31" rx="8.66" ry="8.66"></rect>
    <polygon class="cls-2" points="32.9 97.1 32.9 79.78 43.83 88.44 32.9 97.1"></polygon>
    <polygon class="cls-2" points="70 56.34 60 56.34 55 65 60 73.66 70 73.66 75 65 70 56.34"></polygon>
    <polyline class="cls-2" points="39.29 92.04 39.29 97.1 50.22 88.44 39.29 79.78 39.29 84.84"></polyline>
    <rect class="cls-2" x="38.37" y="61.81" width="6.38" height="6.38"></rect>
    <line class="cls-2" x1="56.34" y1="79.78" x2="73.66" y2="97.1"></line>
    <line class="cls-2" x1="73.66" y1="79.78" x2="56.34" y2="97.1"></line>
  </g>
  <circle class="cls-1" cx="65" cy="65" r="49.12"></circle>
</svg>