<?xml version="1.0"?>
<svg id="icons" xmlns="http://www.w3.org/2000/svg" viewBox="0 0 130 130" fill="none" stroke="#6700E5" stroke-width="2.6" stroke-linejoin="round" stroke-linecap="round">
  <defs>
    
  </defs>
  <circle class="cls-1" cx="65" cy="65" r="32.18" transform="translate(-25.46 81.32) rotate(-55.23)"></circle>
  <path class="cls-1" d="M46.58,38.62l3.33,5.7c.3.52.85.85,1.45.89l6.08.32c.75.04,1.39.54,1.61,1.25l1.6,5.04c.28.9-.17,1.86-1.05,2.21l-8.87,3.49c-.86.34-1.32,1.27-1.07,2.15l1.24,4.44c.28,1-.34,2.02-1.36,2.24l-10.86,2.29c-.55.12-1.01.48-1.25.99l-1.3,2.77c-.43.91-.02,2,.91,2.4l11.59,5.02c.81.35,1.25,1.25,1.02,2.1l-1.78,6.69c-.21.79.14,1.62.86,2.02l3.04,1.7c.59.33.95.97.91,1.65l-.04.72"></path>
  <path class="cls-1" d="M89.37,43.98l-6.96,4.75c-.29.19-.51.47-.64.79l-2.47,5.88c-.35.84-1.29,1.29-2.17,1.02l-8.32-2.49c-.83-.25-1.71.13-2.1.89l-1.97,3.8c-.39.76-.2,1.68.46,2.22,1.67,1.35,4.6,3.74,4.6,4.01,0,.22-.77,2.17-1.4,3.7-.41,1.01.16,2.14,1.22,2.41l8.95,2.29c.45.12.84.4,1.09.8l1.87,3.07c.24.4.63.69,1.09.8h0c1.52.39,1.84,2.41.51,3.25l-4.35,2.75c-.78.5-1.06,1.5-.64,2.33l3.27,6.4"></path>
  <circle class="cls-1" cx="65" cy="65" r="37.66" transform="translate(-25.46 81.32) rotate(-55.23)"></circle>
</svg>