<?xml version="1.0"?>
<svg id="icons" xmlns="http://www.w3.org/2000/svg" version="1.1" viewBox="0 0 130 130" fill="none" stroke="#6700E5" stroke-width="2.6" stroke-linejoin="round" stroke-linecap="round">
  
  <defs>
    
  </defs>
  <circle class="st0" cx="65" cy="65" r="49.12"></circle>
  <path class="st1" d="M32.9,58.43l-1.14.37c-3.11,1.02-4.96,4.22-4.28,7.42l3.42,16.23c.56,2.67,2.86,5.45,6.02,7.27l20.73,11.97c3.16,1.82,6.71,2.43,9.31,1.58l15.77-5.16c3.11-1.02,4.96-4.22,4.28-7.42l-.25-1.18"></path>
  <path class="st1" d="M38.08,49.46l-1.14.37c-3.11,1.02-4.96,4.22-4.28,7.42l3.42,16.23c.56,2.67,2.86,5.45,6.02,7.27l20.73,11.97c3.16,1.82,6.71,2.43,9.31,1.58l15.77-5.16c3.11-1.02,4.96-4.22,4.28-7.42l-.25-1.18"></path>
  <path class="st1" d="M43.26,40.48l-1.14.37c-3.11,1.02-4.96,4.22-4.28,7.42l3.42,16.23c.56,2.67,2.86,5.45,6.02,7.27l20.73,11.97c3.16,1.82,6.71,2.43,9.31,1.58l15.77-5.16c3.11-1.02,4.96-4.22,4.28-7.42l-.25-1.18"></path>
  <path class="st1" d="M63.06,26.73l-15.77,5.16c-3.11,1.02-4.96,4.22-4.28,7.42l3.42,16.23c.56,2.67,2.86,5.45,6.02,7.27l20.73,11.97c3.16,1.82,6.71,2.43,9.31,1.58l15.77-5.16c3.11-1.02,4.96-4.22,4.28-7.42l-3.42-16.23c-.56-2.67-2.86-5.45-6.02-7.27l-20.73-11.97c-3.16-1.82-6.71-2.43-9.31-1.58Z"></path>
</svg>