<?xml version="1.0"?>
<svg id="icons" xmlns="http://www.w3.org/2000/svg" viewBox="0 0 130 130" fill="none" stroke="#6700E5" stroke-width="2.6" stroke-linejoin="round" stroke-linecap="round">
  <defs>
    
  </defs>
  <g>
    <rect class="cls-2" x="86.1" y="44.23" width="3.32" height="8.92"></rect>
    <polygon class="cls-2" points="89.41 53.14 90.4 52.43 90.4 44.93 89.41 44.23 89.41 53.14"></polygon>
    <polygon class="cls-2" points="86.1 44.23 85.11 44.93 85.11 52.43 86.1 53.14 86.1 44.23"></polygon>
    <rect class="cls-2" x="39.72" y="59" width="3.32" height="8.92"></rect>
    <polygon class="cls-2" points="43.04 67.91 44.02 67.2 44.02 59.7 43.04 59 43.04 67.91"></polygon>
    <polygon class="cls-2" points="39.72 59 38.74 59.7 38.74 67.2 39.72 67.91 39.72 59"></polygon>
    <rect class="cls-2" x="71.63" y="64.63" width="3.32" height="8.92" transform="translate(169.12 38.06) rotate(118.75)"></rect>
    <polygon class="cls-2" points="68.59 68.4 68.73 69.6 75.31 73.21 76.4 72.68 68.59 68.4"></polygon>
    <polygon class="cls-2" points="78 69.78 77.85 68.57 71.28 64.97 70.18 65.49 78 69.78"></polygon>
    <path class="cls-2" d="M59.8,62.87l4.87-8.88c.62-1.13,1.59-1.93,2.69-2.39,1.75-3.15,4.78-5.49,8.38-6.32l-.05-.03c-6.27-3.44-14.16-1.14-17.6,5.13l-5.17,9.42c2.61.32,4.98,1.43,6.87,3.07Z"></path>
    <path class="cls-2" d="M65.22,76.01c-1.45,2.64-4.77,3.61-7.41,2.16l-.13-.07c-2.64-1.45-3.61-4.77-2.16-7.41l.47-.85c-.96-1.57-2.68-2.63-4.65-2.63h-2.46c-3.34,6.24-1.03,14.06,5.19,17.47l.13.07c6.27,3.44,14.16,1.14,17.6-5.13l3.52-6.41-6.58-3.61-3.52,6.41Z"></path>
    <path class="cls-2" d="M78.67,52.43c-1.67,0-3.15.76-4.16,1.94.72,1.53.73,3.36-.14,4.95l-3.1,5.65,6.58,3.61,3.1-5.65c1.83-3.34,2.01-7.14.84-10.49h-3.13Z"></path>
    <path class="cls-2" d="M75.74,45.28c-.45.1-.89.23-1.32.38,0,0-.01,0-.02,0-.42.15-.83.32-1.23.5-.01,0-.03.01-.04.02-.39.19-.78.39-1.15.62-.01,0-.02.01-.03.02-.38.23-.74.48-1.09.74,0,0,0,0,0,0-1.42,1.08-2.62,2.45-3.5,4.03,0,0-.01,0-.02.01-1.04,1.86-1.63,4-1.63,6.28v.15c0,3.48,1.39,6.65,3.63,8.98l.84-1.53,1.09-.52,2.49-4.54c-.35-.72-.56-1.53-.56-2.39v-.15c0-1.97,1.05-3.69,2.61-4.65,0,0,0,0,.01,0,.15-.09.31-.18.46-.25.03-.01.05-.02.08-.04.14-.07.28-.12.43-.18.04-.02.08-.03.12-.05.13-.05.27-.08.41-.12.05-.01.1-.03.16-.04.14-.03.28-.05.42-.07.05,0,.11-.02.16-.02.19-.02.39-.03.59-.03h6.44v-7.5h-6.44c-1.01,0-1.99.13-2.93.35h0Z"></path>
    <path class="cls-2" d="M97.71,44.93h-7.31v7.5h7.31c3.01,0,5.46,2.45,5.46,5.46v.15c0,3.01-2.45,5.46-5.46,5.46h-17.08l-2.78,5.07.15,1.2-.64,1.16c.43.04.87.07,1.31.07h19.04c7.15,0,12.96-5.81,12.96-12.96v-.15c0-7.15-5.81-12.96-12.96-12.96Z"></path>
    <path class="cls-2" d="M56.79,72.66v.15c0,1.25-.42,2.39-1.13,3.31.48.8,1.14,1.49,2.01,1.97l.13.07c1.75.96,3.77.83,5.37-.12.71-1.6,1.12-3.37,1.12-5.24v-.15c0-7.15-5.81-12.96-12.96-12.96h-7.31v7.5h7.31c3.01,0,5.46,2.45,5.46,5.46Z"></path>
    <path class="cls-2" d="M54.2,84.74l-.13-.07c-2.68-1.47-4.61-3.77-5.7-6.4h-16.07c-3.01,0-5.46-2.45-5.46-5.46v-.15c0-3.01,2.45-5.46,5.46-5.46h6.44v-7.5h-6.44c-7.15,0-12.96,5.81-12.96,12.96v.15c0,7.15,5.81,12.96,12.96,12.96h19.04c1.33,0,2.61-.2,3.81-.57-.32-.14-.64-.28-.95-.45Z"></path>
  </g>
  <circle class="cls-1" cx="65" cy="65" r="49.12"></circle>
</svg>