<?xml version="1.0"?>
<svg id="icons" xmlns="http://www.w3.org/2000/svg" viewBox="0 0 130 130" fill="none" stroke="#6700E5" stroke-width="2.6" stroke-linejoin="round" stroke-linecap="round">
  <defs>
    
  </defs>
  <path class="cls-1" d="M72.03,49.35c-2.74-1.65-5.95-2.6-9.38-2.6-10.06,0-18.22,8.16-18.22,18.22s8.16,18.22,18.22,18.22,18.22-8.16,18.22-18.22c0-1.99-.32-3.9-.91-5.69"></path>
  <ellipse class="cls-1" cx="62.65" cy="64.97" rx="11.3" ry="18.22"></ellipse>
  <line class="cls-1" x1="62.65" y1="46.75" x2="62.65" y2="83.19"></line>
  <line class="cls-1" x1="44.43" y1="64.97" x2="80.87" y2="64.97"></line>
  <path class="cls-1" d="M46.57,56.39c4.4-1.52,9.99-2.43,16.08-2.43,4.57,0,8.85.51,12.56,1.41"></path>
  <path class="cls-1" d="M78.72,73.55c-4.4,1.52-9.99,2.43-16.08,2.43s-11.68-.91-16.08-2.43"></path>
  <path class="cls-1" d="M62.65,35.7c-16.17,0-29.28,13.11-29.28,29.28s13.11,29.28,29.28,29.28,29.28-13.11,29.28-29.28"></path>
  <path class="cls-1" d="M75.86,32.32c-4.08-1.65-8.54-2.57-13.21-2.57-19.45,0-35.22,15.77-35.22,35.22s15.77,35.22,35.22,35.22,35.22-15.77,35.22-35.22c0-5.62-1.32-10.93-3.67-15.65"></path>
  <path class="cls-1" d="M76.78,31.04c-3-.83-6.16-1.29-9.43-1.29h-4.7"></path>
  <path class="cls-1" d="M62.65,100.19h4.7c19.45,0,35.22-15.77,35.22-35.22,0-6.89-1.99-13.31-5.41-18.74"></path>
  <circle class="cls-1" cx="86.62" cy="39.11" r="12.72"></circle>
  <path class="cls-1" d="M86.62,32.61l-5.91,1.76v5.07c0,5.13,5.91,6.96,5.91,6.96,0,0,5.91-1.83,5.91-6.96v-5.07l-5.91-1.76Z"></path>
</svg>