<?xml version="1.0"?>
<svg id="icons" xmlns="http://www.w3.org/2000/svg" viewBox="0 0 130 130" fill="none" stroke="#6700E5" stroke-width="2.6" stroke-linejoin="round" stroke-linecap="round">
  <defs>
    
  </defs>
  <g>
    <path class="cls-2" d="M60.8,55.96c-5.77-6.91-15.65-9.43-24.24-5.51-10.31,4.7-14.87,16.86-10.18,27.18,4.69,10.31,16.86,14.87,27.18,10.18,3.2-1.46,5.84-3.63,7.83-6.24"></path>
    <path class="cls-2" d="M59.62,59.37c-4.69-7.02-13.89-9.82-21.83-6.21-8.82,4.01-12.71,14.42-8.7,23.23,4.01,8.82,14.42,12.71,23.23,8.7,3.25-1.48,5.82-3.83,7.58-6.64"></path>
    <line class="cls-2" x1="35.13" y1="65.48" x2="48.67" y2="59.32"></line>
    <line class="cls-2" x1="41.9" y1="62.4" x2="48.84" y2="77.65"></line>
    <path class="cls-2" d="M46.89,67.35l2.86-1.3c.91-.41,1.98-.01,2.39.9h0c.41.91.01,1.98-.9,2.39l-10.25,4.67c-.91.41-1.98.01-2.39-.9h0c-.41-.91-.01-1.98.9-2.39l2.86-1.3"></path>
    <path class="cls-2" d="M61.76,53.82c-5.87-5.98-15.08-7.98-23.15-4.3l-2.05.93"></path>
    <ellipse class="cls-2" cx="84.99" cy="66.15" rx="26.45" ry="19.54" transform="translate(-6.23 123.39) rotate(-70)"></ellipse>
    <path class="cls-2" d="M94.04,41.29l-6.29-2.29c-10.14-3.69-22.41,4.45-27.41,18.18-5,13.73-.83,27.85,9.31,31.54l6.29,2.29"></path>
    <ellipse class="cls-2" cx="84.99" cy="66.15" rx="22.61" ry="16.7" transform="translate(-6.23 123.39) rotate(-70)"></ellipse>
    <path class="cls-2" d="M91.38,59.21l-7.25-2.64c-1.67-.61-3.69.73-4.51,2.99h0c-.82,2.26-.14,4.58,1.53,5.19l5.16,1.88c1.67.61,2.35,2.93,1.53,5.19h0c-.82,2.26-2.84,3.6-4.51,2.99l-7.25-2.64"></path>
    <line class="cls-2" x1="86.71" y1="57.51" x2="87.79" y2="54.55"></line>
    <line class="cls-2" x1="79.68" y1="76.83" x2="80.76" y2="73.86"></line>
    <path class="cls-2" d="M96.81,57.02c2.45,8.31-1.41,18.93-8.63,23.72"></path>
    <path class="cls-2" d="M70.66,74.36c-2.45-8.31,1.41-18.93,8.63-23.72"></path>
  </g>
  <circle class="cls-1" cx="65" cy="65" r="49.12"></circle>
</svg>