<?xml version="1.0"?>
<svg id="icons" xmlns="http://www.w3.org/2000/svg" viewBox="0 0 130 130" fill="none" stroke="#F2F3F7" stroke-width="2.6" stroke-linejoin="round" stroke-linecap="round">
  <defs>
    
  </defs>
  <path class="cls-1" d="M74.57,36.99l-42.82,11.32c-1.24.33-2.1,1.45-2.1,2.73v27.93c0,1.28.86,2.4,2.1,2.73l42.82,11.32c1.79.47,3.54-.88,3.54-2.73v-50.57c0-1.85-1.75-3.2-3.54-2.73Z"></path>
  <path class="cls-1" d="M32.31,78.55l2.33-11.04c.06-.3.26-.55.54-.69l1.21-.58c.56-.27,1.22.03,1.39.63l1.85,6.66c.27.96,1.62.97,1.91.02l1.77-6c.09-.32.34-.57.66-.67l3.31-1.01c.31-.09.55-.33.65-.63l2.94-8.83c.11-.32.37-.57.7-.65l3.07-.75c.54-.13,1.09.21,1.2.75l2.57,11.86c.2.91,1.42,1.07,1.85.25l13.43-25.84"></path>
  <path class="cls-1" d="M92.16,80.7l6,1.59c1.1.29,2.19-.54,2.19-1.68v-31.21c0-1.14-1.08-1.98-2.19-1.68l-6,1.59"></path>
  <path class="cls-1" d="M89.28,42.21l-11.17,2.95v39.68l11.17,2.95c1.46.38,2.88-.71,2.88-2.22v-41.14c0-1.51-1.43-2.6-2.88-2.22Z"></path>
</svg>