<?xml version="1.0"?>
<svg id="icons" xmlns="http://www.w3.org/2000/svg" viewBox="0 0 130 130" fill="none" stroke="#F2F3F7" stroke-width="2.6" stroke-linejoin="round" stroke-linecap="round">
  <defs>
    
  </defs>
  <g>
    <circle class="cls-2" cx="65" cy="35.4" r="7.41"></circle>
    <circle class="cls-2" cx="65" cy="94.6" r="7.41"></circle>
    <circle class="cls-2" cx="39.37" cy="50.2" r="7.41"></circle>
    <circle class="cls-2" cx="90.63" cy="79.8" r="7.41"></circle>
    <circle class="cls-2" cx="39.37" cy="79.8" r="7.41"></circle>
    <circle class="cls-2" cx="90.63" cy="50.2" r="7.41"></circle>
    <line class="cls-2" x1="90.63" y1="57.61" x2="90.63" y2="72.39"></line>
    <line class="cls-2" x1="39.37" y1="57.61" x2="39.37" y2="72.39"></line>
    <line class="cls-2" x1="71.42" y1="39.11" x2="84.21" y2="46.5"></line>
    <line class="cls-2" x1="45.79" y1="83.5" x2="58.58" y2="90.89"></line>
    <line class="cls-2" x1="45.79" y1="46.5" x2="58.58" y2="39.11"></line>
    <line class="cls-2" x1="71.42" y1="90.89" x2="84.21" y2="83.5"></line>
    <line class="cls-2" x1="73.81" y1="59.91" x2="84.22" y2="53.91"></line>
    <line class="cls-2" x1="45.78" y1="76.09" x2="56.19" y2="70.09"></line>
    <polygon class="cls-2" points="73.81 70.09 73.81 59.91 65 54.83 56.19 59.91 56.19 70.09 65 75.17 73.81 70.09"></polygon>
    <line class="cls-2" x1="65" y1="54.83" x2="65" y2="42.81"></line>
    <line class="cls-2" x1="65" y1="87.19" x2="65" y2="75.17"></line>
    <line class="cls-2" x1="56.19" y1="59.91" x2="45.78" y2="53.91"></line>
    <line class="cls-2" x1="84.22" y1="76.09" x2="73.81" y2="70.09"></line>
    <line class="cls-2" x1="65" y1="65" x2="65" y2="71.37"></line>
    <line class="cls-2" x1="65" y1="65" x2="70.52" y2="61.81"></line>
    <line class="cls-2" x1="65" y1="65" x2="59.48" y2="61.81"></line>
    <path class="cls-2" d="M65,30.17c-2.89,0-5.23,2.34-5.23,5.23"></path>
    <path class="cls-2" d="M65,89.36c-2.89,0-5.23,2.34-5.23,5.23"></path>
    <path class="cls-2" d="M90.63,44.97c-2.89,0-5.23,2.34-5.23,5.23"></path>
    <path class="cls-2" d="M90.63,74.57c-2.89,0-5.23,2.34-5.23,5.23"></path>
    <path class="cls-2" d="M39.37,74.57c-2.89,0-5.23,2.34-5.23,5.23"></path>
    <path class="cls-2" d="M39.37,44.97c-2.89,0-5.23,2.34-5.23,5.23"></path>
  </g>
  <circle class="cls-1" cx="65" cy="65" r="49.12"></circle>
</svg>