<?xml version="1.0"?>
<svg id="icons" xmlns="http://www.w3.org/2000/svg" viewBox="0 0 130 130" fill="none" stroke="#F2F3F7" stroke-width="2.6" stroke-linejoin="round" stroke-linecap="round">
  <defs>
    
  </defs>
  <g>
    <ellipse class="cls-2" cx="52.51" cy="45.84" rx="11.3" ry="15.18" transform="translate(-13.44 68.39) rotate(-60)"></ellipse>
    <path class="cls-2" d="M39.37,38.25l-2.07,3.59c-3.12,5.41.23,13.19,7.49,17.38s15.67,3.21,18.8-2.2l2.07-3.59"></path>
    <ellipse class="cls-2" cx="52.51" cy="45.84" rx="9.64" ry="12.94" transform="translate(-13.44 68.39) rotate(-60)"></ellipse>
    <path class="cls-2" d="M53.01,61.78c-4.69,4.31-6.63,9.86-4.32,13.59,2.82,4.56,10.88,4.69,18.01.28,7.13-4.41,10.63-11.67,7.81-16.23-1.83-2.97-5.89-4.04-10.46-3.23"></path>
    <polyline class="cls-2" points="46.29 60 36.45 90.97 80.87 81.58 90.89 50.03 64.38 55.64"></polyline>
    <polyline class="cls-2" points="36.45 90.97 39.44 96.55 83.85 87.16 93.87 55.61 90.89 50.03"></polyline>
    <path class="cls-2" d="M48.17,74.28c-.85,2.77-.7,5.31.69,7.15,3.37,4.47,12.64,3.17,20.71-2.91,8.07-6.08,11.89-14.63,8.52-19.1-1.39-1.85-3.81-2.7-6.72-2.64"></path>
    <path class="cls-2" d="M48.69,75.37l1.87,3.03c2.82,4.56,10.88,4.69,18.01.28,7.13-4.41,10.63-11.67,7.81-16.23l-1.87-3.03"></path>
    <path class="cls-2" d="M55.27,61.76c-4.71,3.77-6.8,9-4.68,12.44,2.4,3.89,9.28,4,15.36.24,6.08-3.76,9.07-9.96,6.66-13.85-1.67-2.7-5.49-3.57-9.7-2.6"></path>
    <line class="cls-2" x1="80.87" y1="81.58" x2="83.85" y2="87.16"></line>
  </g>
  <circle class="cls-1" cx="65" cy="65" r="49.12"></circle>
</svg>